<?xml version="1.0" encoding="utf-8"?>
<!-- Generator: Adobe Illustrator 16.0.0, SVG Export Plug-In . SVG Version: 6.00 Build 0)  -->
<!DOCTYPE svg PUBLIC "-//W3C//DTD SVG 1.1//EN" "http://www.w3.org/Graphics/SVG/1.1/DTD/svg11.dtd">
<svg version="1.1" id="Layer_1" xmlns="http://www.w3.org/2000/svg" xmlns:xlink="http://www.w3.org/1999/xlink" x="0px" y="0px"
	 width="1190.55px" height="841.89px" viewBox="0 0 1190.55 841.89" enable-background="new 0 0 1190.55 841.89"
	 xml:space="preserve">
<g>
	<g>
		<path fill="none" stroke="#00A2D3" stroke-width="2.8162" stroke-miterlimit="10" d="M416.825,143.849
			c0,0-7.598,134.641,7.54,181.726c6.141,16.031,23.203,19.925,35.585,21.754c12.385,1.833,50.874,3.637,63.309,0.895
			c12.427-2.747,24.371-10.39,26.703-29.419c2.332-19.024,8.814-167.465,4.305-177.333c-4.516-9.872-9.344-17.388-21.224-20.915
			c-11.882-3.529-79.875-1.771-92.261,1.343C428.396,125.013,421.437,126.858,416.825,143.849z"/>
		<path fill="none" stroke="#00A2D3" stroke-width="2.8162" stroke-miterlimit="10" d="M416.456,272.268
			c0,0,10.755,1.821,13.479,14.707c2.717,12.883,3.007,12.895,3.553,13.497c0.547,0.593,3.902,5.754,16.166,7.149
			c12.257,1.395,47.914,5.245,68.395,2.128c11.329-0.223,13.381-7.869,14.33-13.132c0.943-5.259,0.869-10.402,3.152-13.322
			c2.281-2.915,6.44-6.889,17.124-6.856"/>
		<path fill="none" stroke="#00A2D3" stroke-width="2.8162" stroke-miterlimit="10" d="M429.524,218.03
			c11.217,12.241,30.464,12.855,42.996,1.381c12.52-11.479,13.588-30.707,2.371-42.946c-11.218-12.241-30.469-12.862-42.994-1.384
			C419.372,186.562,418.31,205.789,429.524,218.03z"/>
		<path fill="none" stroke="#00A2D3" stroke-width="2.8162" stroke-miterlimit="10" d="M529.283,192.664
			c4.535,4.944,3.944,12.858-1.31,17.673c-5.256,4.816-13.189,4.712-17.719-0.236c-4.535-4.943-3.945-12.858,1.302-17.671
			C516.819,187.614,524.748,187.72,529.283,192.664z"/>
	</g>
	<g>
		
			<line fill="none" stroke="#00A2D3" stroke-width="2.8162" stroke-miterlimit="10" x1="604.254" y1="285.588" x2="685.035" y2="285.588"/>
		<path fill="none" stroke="#00A2D3" stroke-width="2.8162" stroke-miterlimit="10" d="M767.836,230.176
			c0,0-15.66-2.647-16.143,7.95c-0.479,10.602,0,38.547,0,38.547l-57.59-1.214"/>
		<path fill="none" stroke="#00A2D3" stroke-width="2.8162" stroke-miterlimit="10" d="M597.987,270.895
			c0.728-2.893,132.263,7.225,132.263,7.225l26.504,0.482c0,0,0.969-30.597,0.969-38.786c0-8.191,0.955-9.395,10.113-9.64
			c9.156-0.241,7.713,11.565,7.713,11.565s-1.932,80.469-1.932,91.311c0,10.839-43.119,9.879-43.119,9.879s-112.027,0-118.772,0
			c-6.751,0-6.509-1.929-6.509-1.929l-0.963-55.414h-8.431c-3.134-5.061,0-15.891,0-15.891h28.906
			c-1.924-12.038,0-104.082,0-104.082l105.521,6.985c0,0,15.184,2.894,31.568-6.985"/>
		<path fill="none" stroke="#00A2D3" stroke-width="2.8162" stroke-miterlimit="10" d="M704.838,231.401
			c0,17.95-14.4,32.507-32.162,32.507c-17.764,0-32.163-14.557-32.163-32.507c0-17.953,14.399-32.508,32.163-32.508
			C690.438,198.894,704.838,213.448,704.838,231.401z"/>
		<path fill="none" stroke="#00A2D3" stroke-width="2.8162" stroke-miterlimit="10" d="M694.652,255.137
			c-3.445,1.612-7.273,2.513-11.318,2.513c-14.865,0-26.92-12.186-26.92-27.208c0-15.028,12.055-27.213,26.92-27.213
			c2.352,0,4.635,0.306,6.813,0.879"/>
		<path fill="none" stroke="#00A2D3" stroke-width="2.8162" stroke-miterlimit="10" d="M689.539,228.611
			c0,5.121-4.151,9.276-9.276,9.276c-5.118,0-9.275-4.155-9.275-9.276c0-5.122,4.157-9.274,9.275-9.274
			C685.388,219.337,689.539,223.489,689.539,228.611z"/>
		<path fill="none" stroke="#00A2D3" stroke-width="2.8162" stroke-miterlimit="10" d="M672.676,160.797c0,0-5.658,3.012-8.674,0"/>
		<path fill="none" stroke="#00A2D3" stroke-width="2.8162" stroke-miterlimit="10" d="M704.838,161.468c0,0-8.574,4.306-12.893,0"
			/>
		<path fill="none" stroke="#00A2D3" stroke-width="2.8162" stroke-miterlimit="10" d="M737.719,161.468c0,0-5.444,4.428-9.875,0"/>
		
			<ellipse fill="none" stroke="#00A2D3" stroke-width="2.8162" stroke-miterlimit="10" cx="699.745" cy="104.784" rx="5.093" ry="5.177"/>
		<path fill="none" stroke="#00A2D3" stroke-width="2.8162" stroke-miterlimit="10" d="M737.719,122.491
			c0,2.396-1.934,4.338-4.33,4.338c-2.393,0-4.342-1.941-4.342-4.338c0-2.395,1.949-4.337,4.342-4.337
			C735.785,118.154,737.719,120.097,737.719,122.491z"/>
		<path fill="none" stroke="#00A2D3" stroke-width="2.8162" stroke-miterlimit="10" d="M672.676,126.587
			c0,2.261-8.674,2.261-8.674,0c0-2.264,1.941-4.096,4.338-4.096C670.734,122.491,672.676,124.323,672.676,126.587z"/>
		<g>
			<polygon fill="#00A2D3" points="666.932,162.136 667.07,128.291 667.684,128.273 669.747,162.056 			"/>
		</g>
		<g>
			<polygon fill="#00A2D3" points="700.146,109.972 699.805,163.353 696.989,163.281 699.34,109.95 			"/>
		</g>
		<g>
			<polygon fill="#00A2D3" points="733.715,126.834 734.189,163.341 731.374,163.294 733.064,126.823 			"/>
		</g>
	</g>
</g>
<g>
	<g>
		<g>
			<path fill="none" stroke="#00A2D3" stroke-width="2.1084" stroke-miterlimit="10" d="M283.785,485.96
				c0,0-2.52,44.683,2.504,60.309c2.038,5.32,7.7,6.611,11.811,7.22c4.109,0.606,16.883,1.206,21.009,0.296
				c4.122-0.911,8.088-3.447,8.862-9.762s2.924-55.576,1.43-58.852c-1.5-3.276-3.102-5.771-7.047-6.941
				c-3.94-1.171-26.507-0.586-30.616,0.445C287.628,479.71,285.317,480.321,283.785,485.96z"/>
			<path fill="none" stroke="#00A2D3" stroke-width="2.1084" stroke-miterlimit="10" d="M283.664,528.577
				c0,0,3.568,0.606,4.475,4.881c0.901,4.275,0.996,4.279,1.177,4.479c0.182,0.198,1.295,1.91,5.366,2.374
				c4.068,0.462,15.899,1.739,22.698,0.705c3.76-0.073,4.439-2.61,4.756-4.356c0.313-1.746,0.288-3.453,1.046-4.422
				c0.758-0.968,2.138-2.286,5.683-2.275"/>
			
				<ellipse transform="matrix(-0.7373 0.6755 -0.6755 -0.7373 853.6866 675.4177)" fill="none" stroke="#00A2D3" stroke-width="2.1084" stroke-miterlimit="10" cx="295.53" cy="503.681" rx="10.21" ry="9.977"/>
			<path fill="none" stroke="#00A2D3" stroke-width="2.1084" stroke-miterlimit="10" d="M321.106,502.16
				c1.507,1.642,1.31,4.267-0.433,5.864c-1.746,1.6-4.378,1.564-5.88-0.078c-1.508-1.641-1.31-4.267,0.432-5.864
				C316.972,500.484,319.604,500.52,321.106,502.16z"/>
		</g>
		<path fill="none" stroke="#00A2D3" stroke-width="4.2167" stroke-miterlimit="10" d="M174.756,625.045h9.094v-68.993h-9.094
			v-20.227h58.486c26.029,0,38.417,9.722,38.417,26.813c0,13.171-3.606,19.601-15.367,24.303
			c11.29,3.138,20.699,11.448,20.699,26.658c0,22.108-12.388,31.829-42.65,31.829h-59.585V625.045z M216.309,580.044h9.564
			c8.311,0,10.663-4.548,10.663-12.073c0-7.215-4.391-11.447-10.35-11.447h-9.878V580.044z M228.853,625.045
			c6.586,0,12.7-5.018,12.7-13.486c0-7.995-4.547-13.797-13.171-13.797h-12.073v27.283H228.853z"/>
		<path fill="none" stroke="#00A2D3" stroke-width="4.2167" stroke-miterlimit="10" d="M288.799,645.429v-20.54h6.587v-37.478
			h-6.587v-20.384h36.376v57.861h7.527v20.54H288.799z"/>
		<path fill="none" stroke="#00A2D3" stroke-width="4.2167" stroke-miterlimit="10" d="M399.392,602.467
			c-0.313-7.527-2.664-16.464-9.879-16.464c-9.248,0-13.795,9.877-13.795,20.071c0,10.191,6.115,18.346,16.15,18.502
			c8.311,0.156,13.8-3.294,18.972-8.938l13.799,15.991c-7.371,7.997-21.482,15.995-38.416,15.995
			c-23.052,0-43.123-13.954-43.123-41.865c0-27.753,18.507-40.142,38.577-40.142c10.661,0,16.933,5.801,19.597,8.938l2.669-7.528
			h18.502v35.439H399.392z"/>
	</g>
	<g>
		<g>
			
				<line fill="none" stroke="#00A2D3" stroke-width="2.1084" stroke-miterlimit="10" x1="632.341" y1="535.998" x2="659.147" y2="535.998"/>
			<path fill="none" stroke="#00A2D3" stroke-width="2.1084" stroke-miterlimit="10" d="M686.627,517.61
				c0,0-5.196-0.879-5.356,2.639s0,12.791,0,12.791l-19.111-0.403"/>
			<path fill="none" stroke="#00A2D3" stroke-width="2.1084" stroke-miterlimit="10" d="M630.261,531.122
				c0.24-0.959,43.893,2.398,43.893,2.398l8.797,0.16c0,0,0.32-10.154,0.32-12.873s0.318-3.117,3.356-3.197
				c3.039-0.081,2.558,3.838,2.558,3.838s-0.638,26.703-0.638,30.301s-14.311,3.279-14.311,3.279s-37.181,0-39.416,0
				c-2.241,0-2.163-0.641-2.163-0.641l-0.316-18.39h-2.801c-1.037-1.679,0-5.272,0-5.272h9.596c-0.639-3.996,0-34.541,0-34.541
				l35.018,2.316c0,0,5.037,0.961,10.477-2.316"/>
			
				<ellipse fill="none" stroke="#00A2D3" stroke-width="2.1084" stroke-miterlimit="10" cx="655.048" cy="518.016" rx="10.674" ry="10.788"/>
			<path fill="none" stroke="#00A2D3" stroke-width="2.1084" stroke-miterlimit="10" d="M662.34,525.894
				c-1.146,0.533-2.413,0.832-3.755,0.832c-4.934,0-8.937-4.043-8.937-9.028c0-4.988,4.003-9.03,8.937-9.03
				c0.777,0,1.535,0.101,2.261,0.291"/>
			<circle fill="none" stroke="#00A2D3" stroke-width="2.1084" stroke-miterlimit="10" cx="657.565" cy="517.09" r="3.078"/>
			<path fill="none" stroke="#00A2D3" stroke-width="2.1084" stroke-miterlimit="10" d="M655.047,494.585c0,0-1.878,0.999-2.878,0"
				/>
			<path fill="none" stroke="#00A2D3" stroke-width="2.1084" stroke-miterlimit="10" d="M665.722,494.807c0,0-2.846,1.431-4.279,0"
				/>
			<path fill="none" stroke="#00A2D3" stroke-width="2.1084" stroke-miterlimit="10" d="M676.633,494.807c0,0-1.808,1.471-3.278,0"
				/>
			<path fill="none" stroke="#00A2D3" stroke-width="2.1084" stroke-miterlimit="10" d="M665.722,475.996
				c0,0.949-0.759,1.718-1.694,1.718c-0.931,0-1.688-0.769-1.688-1.718s0.757-1.72,1.688-1.72
				C664.963,474.276,665.722,475.047,665.722,475.996z"/>
			<circle fill="none" stroke="#00A2D3" stroke-width="2.1084" stroke-miterlimit="10" cx="675.194" cy="481.872" r="1.439"/>
			<path fill="none" stroke="#00A2D3" stroke-width="2.1084" stroke-miterlimit="10" d="M655.047,483.231c0,0.75-2.878,0.75-2.878,0
				s0.643-1.359,1.437-1.359C654.4,481.872,655.047,482.481,655.047,483.231z"/>
			<g>
				<polygon fill="#00A2D3" points="652.552,495.046 653.059,483.801 653.518,483.788 654.659,494.986 				"/>
			</g>
			<g>
				<polygon fill="#00A2D3" points="664.329,477.722 664.637,495.448 662.529,495.396 663.726,477.707 				"/>
			</g>
			<g>
				<polygon fill="#00A2D3" points="675.438,483.315 676.048,495.438 673.94,495.403 674.952,483.308 				"/>
			</g>
		</g>
		<path fill="none" stroke="#00A2D3" stroke-width="4.2167" stroke-miterlimit="10" d="M583.433,538.825
			c36.378,0,43.274,15.68,43.274,33.554c0,20.7-18.815,31.049-41.236,31.049h-11.917v24.305h9.563v20.696h-50.491v-20.696h8.784
			v-68.367h-8.784v-20.54H583.433z M573.554,586.493h7.054c9.097,0,15.368-4.704,15.368-13.015c0-9.253-5.489-14.27-14.582-14.27
			h-7.84V586.493z"/>
		<path fill="none" stroke="#00A2D3" stroke-width="4.2167" stroke-miterlimit="10" d="M639.3,648.429v-20.54h6.584v-37.478H639.3
			v-20.384h36.378v57.861h7.527v20.54H639.3z"/>
		<path fill="none" stroke="#00A2D3" stroke-width="4.2167" stroke-miterlimit="10" d="M749.896,605.467
			c-0.313-7.527-2.664-16.464-9.88-16.464c-9.248,0-13.795,9.877-13.795,20.071c0,10.191,6.115,18.346,16.151,18.502
			c8.31,0.156,13.799-3.294,18.971-8.938l13.799,15.991c-7.371,7.997-21.482,15.995-38.416,15.995
			c-23.052,0-43.122-13.954-43.122-41.865c0-27.753,18.506-40.142,38.576-40.142c10.661,0,16.933,5.801,19.598,8.938l2.667-7.528
			h18.503v35.439H749.896z"/>
	</g>
	<g>
		<path fill="none" stroke="#00A2D3" stroke-width="4.2167" d="M454.355,582.927h54.811v25.137h-54.811V582.927z"/>
	</g>
	<path fill="none" stroke="#00A2D3" stroke-width="4.2167" d="M798.618,632.823c0-1.955,0.387-3.99,1.159-6.103
		c0.772-2.109,1.878-4.017,3.321-5.717c1.441-1.699,3.269-3.09,5.485-4.171c2.213-1.082,4.712-1.622,7.493-1.622
		c2.78,0,5.276,0.54,7.493,1.622c2.214,1.081,4.094,2.472,5.639,4.171c1.545,1.7,2.704,3.607,3.477,5.717
		c0.772,2.112,1.159,4.147,1.159,6.103c0,4.636-1.495,8.575-4.48,11.819c-2.989,3.245-7.416,4.867-13.287,4.867
		c-2.576,0-4.92-0.49-7.03-1.468c-2.112-0.978-3.939-2.24-5.484-3.785s-2.757-3.322-3.631-5.33
		C799.056,636.918,798.618,634.885,798.618,632.823z"/>
	<path fill="none" stroke="#00A2D3" stroke-width="4.2167" d="M894.247,648.892h-43.724v-20.239h6.798v-36.926h-6.644v-20.085
		h29.047l4.635,9.889c1.028-1.854,2.109-3.605,3.244-5.254c1.132-1.646,2.573-3.113,4.326-4.402c1.75-1.287,3.913-2.291,6.489-3.014
		c2.573-0.719,5.871-1.081,9.888-1.081v27.81c-7.006,0-12.387,1.159-16.146,3.477c-3.761,2.317-5.639,6.875-5.639,13.673v15.914
		h7.725V648.892z"/>
	<path fill="none" stroke="#00A2D3" stroke-width="4.2167" d="M922.939,571.642h37.389v37.234c0,6.696,0.592,11.614,1.777,14.755
		c1.183,3.144,3.372,4.712,6.566,4.712c2.677,0,4.968-1.081,6.875-3.244c1.904-2.163,2.858-4.995,2.858-8.497v-24.565h-10.197
		v-20.395h40.016v56.701h7.57v20.549h-29.2l-4.172-9.733c-0.825,0.927-1.83,2.086-3.013,3.477c-1.186,1.39-2.626,2.703-4.326,3.939
		c-1.699,1.236-3.734,2.293-6.103,3.167c-2.37,0.874-5.202,1.313-8.497,1.313c-5.871,0-10.791-0.772-14.755-2.317
		c-3.967-1.545-7.16-3.862-9.579-6.953c-2.422-3.09-4.147-7.003-5.176-11.741c-1.031-4.736-1.545-10.299-1.545-16.687v-21.32h-6.489
		V571.642z"/>
</g>
<g>
	<path fill="none" stroke="#00A2D3" stroke-width="2" d="M226.148,723.046h-2.654v-6.277h13.881v6.277h-2.297v12.963h2.297v4.746
		l2.96,6.277h-5.767l-5.358-4.746h-22.659v-6.277h2.552v-12.963h-2.552v-6.277h13.983v6.277h-2.552v12.963h8.166V723.046z"/>
	<path fill="none" stroke="#00A2D3" stroke-width="2" d="M250.747,722.995h-2.705v-6.175h14.29v6.175h-2.858
		c0,1.396-0.025,2.781-0.077,4.159c-0.051,1.378-0.076,2.781-0.076,4.211c0.952-1.089,1.965-2.254,3.037-3.496
		c1.071-1.242,2.16-2.501,3.266-3.776c1.105-1.276,2.194-2.534,3.266-3.777c1.072-1.241,2.083-2.406,3.037-3.495h10.258v6.175h-2.45
		v13.116h2.45v6.175h-14.545v-6.175h3.266v-8.166c-1.939,2.28-3.98,4.67-6.124,7.171c-2.144,2.5-4.185,4.891-6.124,7.17H247.94
		v-6.175h2.807V722.995z"/>
	<path fill="none" stroke="#00A2D3" stroke-width="2" d="M318.06,754.942h-14.902v-6.686h2.194v-5.358
		c-1.804-0.068-3.513-0.4-5.129-0.995c-1.616-0.595-3.054-1.454-4.313-2.577c-1.259-1.123-2.254-2.509-2.985-4.159
		c-0.732-1.65-1.097-3.563-1.097-5.741c0-2.075,0.383-3.93,1.148-5.563c0.766-1.633,1.778-3.011,3.037-4.134
		c1.258-1.122,2.705-1.981,4.338-2.577c1.633-0.595,3.3-0.926,5.001-0.995v-5.563h-2.144v-6.583h11.84v12.197
		c1.939,0.068,3.734,0.426,5.384,1.071c1.65,0.646,3.088,1.549,4.313,2.705c1.225,1.157,2.177,2.561,2.858,4.21
		c0.68,1.65,1.021,3.53,1.021,5.64c0,2.075-0.357,3.913-1.072,5.512c-0.714,1.6-1.684,2.96-2.909,4.082
		c-1.225,1.123-2.663,1.982-4.313,2.578c-1.65,0.595-3.411,0.909-5.282,0.943v5.308h3.011V754.942z M302.291,729.477
		c0,1.871,0.281,3.419,0.842,4.645c0.562,1.225,1.302,1.974,2.22,2.245v-13.524c-0.885,0.204-1.616,0.928-2.194,2.169
		C302.579,726.253,302.291,727.741,302.291,729.477z M318.162,729.63c0-1.735-0.272-3.224-0.816-4.466
		c-0.545-1.241-1.31-1.998-2.297-2.271v13.523c0.987-0.17,1.752-0.884,2.297-2.144C317.89,733.016,318.162,731.467,318.162,729.63z"
		/>
	<path fill="none" stroke="#00A2D3" stroke-width="2" d="M337.351,746.012h2.144v-22.455h-2.144v-6.788h11.687l0.867,1.787
		c0.238-0.17,0.553-0.383,0.944-0.639c0.391-0.255,0.842-0.492,1.353-0.714s1.088-0.417,1.735-0.587
		c0.646-0.17,1.36-0.256,2.144-0.256c1.973,0,3.717,0.357,5.231,1.072c1.514,0.714,2.773,1.684,3.777,2.909
		c1.003,1.225,1.76,2.646,2.271,4.261c0.51,1.616,0.765,3.326,0.765,5.129c0,2.042-0.298,3.871-0.893,5.486
		c-0.596,1.616-1.412,2.985-2.45,4.108c-1.038,1.123-2.271,1.99-3.7,2.603c-1.429,0.612-2.96,0.919-4.593,0.919
		c-1.055,0-1.982-0.086-2.781-0.255c-0.8-0.171-1.463-0.374-1.99-0.613c-0.528-0.237-0.944-0.467-1.25-0.688
		c-0.306-0.221-0.51-0.365-0.612-0.434v5.154h2.756v6.686h-15.259V746.012z M357.152,729.834c0-0.748-0.085-1.506-0.255-2.271
		c-0.17-0.766-0.417-1.437-0.74-2.016c-0.324-0.578-0.714-1.054-1.174-1.429c-0.459-0.374-0.962-0.562-1.505-0.562
		c-0.953,0-1.795,0.527-2.526,1.582c-0.732,1.055-1.097,2.501-1.097,4.338c0,0.953,0.084,1.837,0.255,2.653
		c0.169,0.817,0.416,1.531,0.74,2.144c0.323,0.612,0.714,1.09,1.174,1.43s0.961,0.51,1.505,0.51c1.088,0,1.965-0.578,2.628-1.735
		C356.82,733.321,357.152,731.773,357.152,729.834z"/>
	<path fill="none" stroke="#00A2D3" stroke-width="2" d="M390.579,742.949c-1.837,0-3.615-0.28-5.333-0.842
		c-1.718-0.562-3.241-1.403-4.567-2.526c-1.327-1.122-2.382-2.534-3.164-4.235c-0.783-1.701-1.174-3.675-1.174-5.92
		c0-2.144,0.399-4.04,1.199-5.69c0.799-1.65,1.854-3.037,3.164-4.159c1.31-1.123,2.807-1.973,4.491-2.552
		c1.684-0.578,3.394-0.868,5.129-0.868c2.007,0,3.878,0.315,5.614,0.944c1.735,0.63,3.241,1.531,4.517,2.705
		s2.271,2.603,2.985,4.287c0.714,1.684,1.072,3.598,1.072,5.741c0,2.109-0.366,3.973-1.097,5.588
		c-0.732,1.616-1.728,2.985-2.986,4.108c-1.259,1.123-2.73,1.974-4.415,2.552C394.33,742.66,392.518,742.949,390.579,742.949z
		 M390.579,736.417c0.544,0,1.029-0.17,1.455-0.51c0.425-0.34,0.791-0.817,1.097-1.43s0.536-1.335,0.689-2.169
		c0.153-0.833,0.23-1.726,0.23-2.679c0-0.952-0.085-1.846-0.255-2.68c-0.171-0.833-0.408-1.557-0.714-2.169
		s-0.689-1.097-1.148-1.454s-0.995-0.536-1.607-0.536c-0.51,0-0.979,0.171-1.404,0.511c-0.426,0.34-0.791,0.816-1.097,1.429
		s-0.553,1.327-0.74,2.144c-0.188,0.816-0.281,1.684-0.281,2.603c0,2.11,0.357,3.794,1.072,5.053S389.489,736.417,390.579,736.417z"
		/>
	<path fill="none" stroke="#00A2D3" stroke-width="2" d="M413.748,742.286v-6.277h2.398v-12.963h-2.398v-6.226h15.208
		c3.368,0,5.852,0.579,7.451,1.735c1.599,1.156,2.398,2.807,2.398,4.95c0,1.259-0.136,2.296-0.408,3.112
		c-0.273,0.817-0.749,1.48-1.429,1.991c0.952,0.544,1.727,1.293,2.322,2.245c0.595,0.953,0.893,2.161,0.893,3.623
		c0,2.756-0.86,4.746-2.577,5.972c-1.719,1.225-4.534,1.837-8.446,1.837H413.748z M424.516,723.148v3.164h2.5
		c1.088,0,1.82-0.145,2.195-0.434c0.374-0.289,0.561-0.689,0.561-1.199c0-0.477-0.255-0.851-0.766-1.123
		c-0.51-0.272-1.157-0.408-1.939-0.408H424.516z M427.782,736.009c0.85,0,1.607-0.17,2.271-0.51s0.995-0.817,0.995-1.43
		c0-0.578-0.298-1.063-0.893-1.454c-0.596-0.391-1.438-0.587-2.526-0.587h-3.113v3.98H427.782z"/>
	<path fill="none" stroke="#00A2D3" stroke-width="2" d="M449.931,718.912c0.51-0.306,1.156-0.663,1.939-1.071
		c0.782-0.408,1.659-0.808,2.628-1.199c0.97-0.391,2.007-0.715,3.113-0.97c1.105-0.255,2.253-0.383,3.445-0.383
		c1.531,0,3.113,0.162,4.746,0.484c1.633,0.324,3.121,0.886,4.465,1.685c1.344,0.8,2.45,1.88,3.317,3.24
		c0.868,1.361,1.301,3.063,1.301,5.104v9.952h3.062v6.532h-10.921l-1.225-2.297c-0.477,0.647-1.013,1.183-1.608,1.608
		s-1.208,0.756-1.837,0.995c-0.63,0.237-1.25,0.408-1.863,0.51c-0.612,0.103-1.14,0.153-1.582,0.153
		c-1.225,0-2.433-0.171-3.624-0.511c-1.191-0.34-2.263-0.85-3.215-1.53c-0.953-0.681-1.727-1.557-2.322-2.629
		c-0.596-1.071-0.893-2.355-0.893-3.853c0-1.43,0.281-2.722,0.842-3.879c0.562-1.156,1.327-2.144,2.297-2.96
		c0.969-0.816,2.1-1.445,3.394-1.889c1.292-0.441,2.654-0.663,4.083-0.663c0.748,0,1.42,0.076,2.016,0.229
		c0.595,0.153,1.105,0.332,1.531,0.536c0.425,0.204,0.765,0.408,1.021,0.612s0.416,0.341,0.485,0.408v-1.786
		c0-1.156-0.459-1.922-1.378-2.297c-0.918-0.374-2.076-0.562-3.47-0.562c-1.531,0-2.935,0.256-4.21,0.766
		c-1.276,0.511-2.407,1.039-3.394,1.582L449.931,718.912z M461.26,736.621c0.782,0,1.462-0.187,2.041-0.562
		c0.578-0.374,0.987-0.748,1.225-1.122v-1.939c-0.034-0.068-0.111-0.179-0.229-0.332c-0.12-0.153-0.298-0.314-0.536-0.484
		c-0.238-0.17-0.536-0.323-0.893-0.46c-0.357-0.135-0.809-0.204-1.353-0.204c-1.021,0-1.77,0.256-2.246,0.766
		c-0.477,0.511-0.714,1.157-0.714,1.939c0,0.715,0.255,1.294,0.766,1.735C459.831,736.4,460.477,736.621,461.26,736.621z"/>
	<path fill="none" stroke="#00A2D3" stroke-width="2" d="M516.071,723.046h-2.399v12.963h2.399v6.277h-13.779v-6.277h2.603v-2.705
		h-1.837v-0.356c-1.191,1.497-2.417,3.054-3.675,4.669c-1.259,1.616-2.484,3.173-3.674,4.67h-7.961v-6.227h2.45v0.307
		c0.408-0.477,0.766-0.901,1.072-1.276c0.306-0.373,0.612-0.739,0.918-1.097s0.612-0.731,0.919-1.123
		c0.306-0.391,0.646-0.824,1.021-1.301c-1.089-0.613-1.99-1.43-2.705-2.45c-0.714-1.021-1.071-2.194-1.071-3.521
		c0-1.054,0.153-2.108,0.459-3.164c0.306-1.054,0.884-2.007,1.735-2.857c0.85-0.851,2.049-1.531,3.598-2.042
		c1.548-0.51,3.564-0.766,6.048-0.766h13.881V723.046z M502.802,723.046c-1.293,0-2.289,0.179-2.985,0.536
		c-0.698,0.357-1.046,0.876-1.046,1.557c0,0.579,0.383,1.071,1.148,1.479c0.766,0.409,1.777,0.613,3.037,0.613h1.939v-4.186H502.802
		z"/>
	<path fill="none" stroke="#00A2D3" stroke-width="2" d="M550.314,732.182l0.204,0.204v-0.052c0.17,0.171,0.442,0.409,0.816,0.715
		c0.374,0.307,0.842,0.621,1.403,0.944c0.562,0.323,1.216,0.604,1.965,0.842c0.748,0.238,1.582,0.357,2.501,0.357
		c1.258,0,2.339-0.221,3.241-0.663c0.901-0.442,1.59-1.021,2.067-1.735c-0.715,0.272-1.429,0.408-2.144,0.408
		c-0.443,0-0.809-0.06-1.097-0.179c-0.29-0.119-0.587-0.237-0.893-0.357c-0.307-0.119-0.664-0.237-1.072-0.357
		c-0.408-0.118-0.97-0.179-1.684-0.179c-1.089,0-1.889,0.204-2.399,0.613l-1.939-3.93c0.782-0.782,1.513-1.378,2.194-1.786
		c0.68-0.409,1.446-0.613,2.296-0.613c0.442,0,0.825,0.052,1.148,0.153c0.323,0.103,0.646,0.213,0.97,0.332
		c0.323,0.119,0.697,0.229,1.123,0.332c0.425,0.102,0.944,0.152,1.557,0.152c0.476,0,0.918-0.025,1.327-0.076
		s0.715-0.128,0.919-0.229c-0.375-0.885-0.944-1.59-1.71-2.118c-0.765-0.527-1.693-0.791-2.781-0.791
		c-1.259,0-2.296,0.146-3.113,0.434c-0.816,0.29-1.361,0.758-1.633,1.403h-7.4v-8.931h6.43l1.225,2.449v-0.204
		c0.102-0.135,0.314-0.356,0.638-0.663c0.323-0.307,0.766-0.612,1.327-0.919c0.562-0.306,1.225-0.569,1.991-0.791
		c0.765-0.221,1.658-0.331,2.679-0.331c1.429,0,2.9,0.306,4.415,0.918c1.513,0.612,2.909,1.489,4.185,2.629s2.322,2.526,3.139,4.159
		s1.225,3.487,1.225,5.563c0,2.008-0.357,3.811-1.071,5.41c-0.715,1.599-1.735,2.951-3.063,4.057
		c-1.327,1.106-2.917,1.957-4.771,2.552c-1.855,0.595-3.922,0.894-6.201,0.894c-2.756,0-5.3-0.562-7.629-1.685
		c-2.331-1.123-4.381-2.449-6.15-3.98L550.314,732.182z"/>
	<path fill="none" stroke="#00A2D3" stroke-width="2" d="M615.28,742.286h-13.83v-6.277h2.45v-12.963h-7.094v9.493
		c0,1.633-0.213,3.087-0.639,4.363c-0.426,1.275-1.115,2.348-2.067,3.215c-0.953,0.867-2.194,1.531-3.726,1.99
		c-1.531,0.459-3.402,0.689-5.614,0.689c-0.375,0-0.765-0.044-1.174-0.128c-0.408-0.085-0.8-0.179-1.173-0.28v-6.227
		c0.271,0.068,0.552,0.128,0.842,0.179c0.289,0.051,0.655,0.076,1.097,0.076c1.088,0,1.965-0.28,2.628-0.842
		s0.995-1.573,0.995-3.036v-9.544h-3.776v-6.227h31.08v6.277h-2.603v13.014h2.603V742.286z"/>
	<path fill="none" stroke="#00A2D3" stroke-width="2" d="M651.004,738.765c-1.906,1.633-3.914,2.781-6.022,3.445
		c-2.11,0.663-4.491,0.995-7.146,0.995c-1.6,0-3.197-0.265-4.797-0.791c-1.6-0.527-3.036-1.344-4.313-2.45
		c-1.275-1.105-2.322-2.534-3.139-4.287c-0.816-1.752-1.225-3.853-1.225-6.303c0-2.074,0.357-3.938,1.072-5.588
		c0.715-1.649,1.684-3.053,2.908-4.21c1.225-1.156,2.671-2.033,4.338-2.629c1.667-0.595,3.471-0.893,5.41-0.893
		c2.109,0,3.972,0.306,5.588,0.918c1.615,0.613,2.969,1.464,4.058,2.552c1.089,1.09,1.905,2.373,2.45,3.854
		c0.543,1.48,0.816,3.088,0.816,4.822c0,0.682-0.051,1.353-0.153,2.017c-0.103,0.663-0.255,1.284-0.46,1.862h-16.075
		c0.067,0.341,0.179,0.749,0.331,1.225c0.154,0.478,0.416,0.937,0.791,1.378c0.375,0.443,0.885,0.817,1.531,1.123
		c0.646,0.307,1.514,0.459,2.604,0.459c0.441,0,0.926-0.017,1.454-0.051c0.526-0.033,1.097-0.136,1.71-0.306
		c0.611-0.17,1.258-0.417,1.939-0.74c0.68-0.323,1.359-0.773,2.041-1.353L651.004,738.765z M638.398,722.944
		c-0.783,0-1.422,0.153-1.914,0.459c-0.494,0.307-0.885,0.672-1.174,1.098s-0.494,0.876-0.612,1.353
		c-0.12,0.477-0.196,0.867-0.229,1.174h7.705c0-0.477-0.051-0.961-0.152-1.455c-0.102-0.492-0.281-0.936-0.536-1.327
		c-0.255-0.391-0.63-0.705-1.122-0.943C639.869,723.063,639.215,722.944,638.398,722.944z"/>
	<path fill="none" stroke="#00A2D3" stroke-width="2" d="M671.877,727.537c0.066-0.136,0.102-0.263,0.102-0.383
		c0-0.118,0.135-0.179,0.408-0.179c1.564,0,2.738-0.255,3.521-0.766c0.781-0.51,1.402-1.139,1.863-1.888
		c0.459-0.748,0.867-1.573,1.225-2.476c0.357-0.9,0.91-1.735,1.658-2.5c0.748-0.766,1.82-1.421,3.215-1.965s3.334-0.834,5.818-0.868
		c0.715,0,1.438,0.043,2.168,0.128c0.732,0.085,1.285,0.162,1.66,0.229l0.051,6.277c-0.342-0.17-0.988-0.255-1.939-0.255
		c-0.988,0-1.82,0.11-2.502,0.331c-0.68,0.222-1.25,0.511-1.709,0.868c-0.459,0.356-0.852,0.766-1.174,1.225
		c-0.324,0.459-0.621,0.927-0.893,1.403l-0.613,1.071l6.074,8.268h2.705v6.227h-16.74v-6.227h1.99
		c-0.271-0.408-0.553-0.833-0.842-1.275c-0.289-0.441-0.57-0.901-0.842-1.378c-1.293,0.306-2.773,0.459-4.439,0.459h-0.766v2.194
		h2.348v6.227h-13.576v-6.227h2.297v-13.115h-2.297v-6.176h14.697v6.176h-3.469V727.537z"/>
	<path fill="none" stroke="#00A2D3" stroke-width="2" d="M732.352,716.769v10.564h-6.277v-4.287H722.4v12.912h3.623v6.328h-15.975
		v-6.328h3.572v-12.912h-3.725v4.287h-6.277v-10.564H732.352z"/>
	<path fill="none" stroke="#00A2D3" stroke-width="2" d="M743.221,746.012h2.145v-22.455h-2.145v-6.788h11.688l0.867,1.787
		c0.238-0.17,0.553-0.383,0.945-0.639c0.391-0.255,0.842-0.492,1.352-0.714s1.088-0.417,1.736-0.587
		c0.645-0.17,1.359-0.256,2.143-0.256c1.973,0,3.717,0.357,5.23,1.072c1.514,0.714,2.773,1.684,3.777,2.909
		c1.004,1.225,1.76,2.646,2.271,4.261c0.51,1.616,0.766,3.326,0.766,5.129c0,2.042-0.299,3.871-0.895,5.486
		c-0.596,1.616-1.412,2.985-2.449,4.108s-2.271,1.99-3.699,2.603c-1.43,0.612-2.961,0.919-4.594,0.919
		c-1.055,0-1.982-0.086-2.781-0.255c-0.799-0.171-1.463-0.374-1.99-0.613c-0.527-0.237-0.943-0.467-1.25-0.688
		c-0.307-0.221-0.512-0.365-0.613-0.434v5.154h2.756v6.686h-15.26V746.012z M763.023,729.834c0-0.748-0.086-1.506-0.256-2.271
		s-0.416-1.437-0.74-2.016c-0.324-0.578-0.715-1.054-1.174-1.429c-0.459-0.374-0.961-0.562-1.506-0.562
		c-0.951,0-1.795,0.527-2.525,1.582c-0.732,1.055-1.098,2.501-1.098,4.338c0,0.953,0.086,1.837,0.256,2.653
		c0.17,0.817,0.416,1.531,0.74,2.144c0.322,0.612,0.715,1.09,1.174,1.43s0.961,0.51,1.506,0.51c1.088,0,1.965-0.578,2.627-1.735
		C762.691,733.321,763.023,731.773,763.023,729.834z"/>
	<path fill="none" stroke="#00A2D3" stroke-width="2" d="M796.449,742.949c-1.836,0-3.615-0.28-5.332-0.842
		c-1.719-0.562-3.24-1.403-4.568-2.526c-1.326-1.122-2.381-2.534-3.164-4.235s-1.174-3.675-1.174-5.92c0-2.144,0.4-4.04,1.199-5.69
		s1.854-3.037,3.164-4.159c1.311-1.123,2.807-1.973,4.492-2.552c1.684-0.578,3.393-0.868,5.129-0.868
		c2.006,0,3.879,0.315,5.613,0.944c1.734,0.63,3.24,1.531,4.516,2.705c1.277,1.174,2.271,2.603,2.986,4.287
		c0.715,1.684,1.072,3.598,1.072,5.741c0,2.109-0.367,3.973-1.098,5.588c-0.732,1.616-1.727,2.985-2.986,4.108
		c-1.258,1.123-2.73,1.974-4.414,2.552S798.389,742.949,796.449,742.949z M796.449,736.417c0.545,0,1.029-0.17,1.455-0.51
		s0.791-0.817,1.098-1.43s0.535-1.335,0.689-2.169c0.152-0.833,0.229-1.726,0.229-2.679c0-0.952-0.086-1.846-0.256-2.68
		c-0.17-0.833-0.408-1.557-0.713-2.169c-0.307-0.612-0.689-1.097-1.148-1.454s-0.996-0.536-1.607-0.536
		c-0.512,0-0.979,0.171-1.404,0.511s-0.791,0.816-1.098,1.429c-0.305,0.612-0.553,1.327-0.74,2.144
		c-0.186,0.816-0.279,1.684-0.279,2.603c0,2.11,0.357,3.794,1.07,5.053C794.459,735.788,795.361,736.417,796.449,736.417z"/>
	<path fill="none" stroke="#00A2D3" stroke-width="2" d="M819.771,716.82h13.932v6.277h-2.652v3.164h8.113v-3.164h-2.5v-6.277
		h13.932v6.277h-2.5v12.911h2.5v6.277h-13.932v-6.277h2.5v-3.419h-8.113v3.419h2.652v6.277h-13.932v-6.277h2.398v-12.911h-2.398
		V716.82z"/>
	<path fill="none" stroke="#00A2D3" stroke-width="2" d="M864.018,722.995h-2.703v-6.175h14.289v6.175h-2.857
		c0,1.396-0.027,2.781-0.078,4.159s-0.076,2.781-0.076,4.211c0.953-1.089,1.965-2.254,3.037-3.496s2.16-2.501,3.266-3.776
		c1.105-1.276,2.195-2.534,3.266-3.777c1.072-1.241,2.084-2.406,3.037-3.495h10.258v6.175h-2.449v13.116h2.449v6.175H880.91v-6.175
		h3.268v-8.166c-1.939,2.28-3.982,4.67-6.125,7.171c-2.143,2.5-4.186,4.891-6.125,7.17h-10.717v-6.175h2.807V722.995z"/>
	<path fill="none" stroke="#00A2D3" stroke-width="2" d="M917.502,727.537c0.066-0.136,0.102-0.263,0.102-0.383
		c0-0.118,0.135-0.179,0.408-0.179c1.564,0,2.738-0.255,3.521-0.766c0.781-0.51,1.402-1.139,1.863-1.888
		c0.459-0.748,0.867-1.573,1.225-2.476c0.357-0.9,0.91-1.735,1.658-2.5c0.748-0.766,1.82-1.421,3.215-1.965s3.334-0.834,5.818-0.868
		c0.715,0,1.438,0.043,2.168,0.128c0.732,0.085,1.285,0.162,1.66,0.229l0.051,6.277c-0.342-0.17-0.988-0.255-1.939-0.255
		c-0.988,0-1.82,0.11-2.502,0.331c-0.68,0.222-1.25,0.511-1.709,0.868c-0.459,0.356-0.852,0.766-1.174,1.225
		c-0.324,0.459-0.621,0.927-0.893,1.403l-0.613,1.071l6.074,8.268h2.705v6.227H922.4v-6.227h1.99
		c-0.271-0.408-0.553-0.833-0.842-1.275c-0.289-0.441-0.57-0.901-0.842-1.378c-1.293,0.306-2.773,0.459-4.439,0.459h-0.766v2.194
		h2.348v6.227h-13.576v-6.227h2.297v-13.115h-2.297v-6.176h14.697v6.176h-3.469V727.537z"/>
	<path fill="none" stroke="#00A2D3" stroke-width="2" d="M949.807,718.912c0.51-0.306,1.156-0.663,1.939-1.071
		c0.781-0.408,1.658-0.808,2.629-1.199c0.969-0.391,2.006-0.715,3.111-0.97s2.254-0.383,3.445-0.383
		c1.531,0,3.113,0.162,4.746,0.484c1.633,0.324,3.121,0.886,4.467,1.685c1.342,0.8,2.449,1.88,3.316,3.24
		c0.867,1.361,1.301,3.063,1.301,5.104v9.952h3.063v6.532h-10.922l-1.225-2.297c-0.477,0.647-1.012,1.183-1.607,1.608
		s-1.207,0.756-1.838,0.995c-0.629,0.237-1.25,0.408-1.861,0.51c-0.613,0.103-1.141,0.153-1.582,0.153
		c-1.225,0-2.434-0.171-3.623-0.511c-1.191-0.34-2.264-0.85-3.217-1.53s-1.727-1.557-2.322-2.629
		c-0.596-1.071-0.893-2.355-0.893-3.853c0-1.43,0.281-2.722,0.842-3.879c0.563-1.156,1.328-2.144,2.297-2.96
		c0.971-0.816,2.102-1.445,3.395-1.889c1.293-0.441,2.654-0.663,4.082-0.663c0.748,0,1.42,0.076,2.016,0.229
		s1.105,0.332,1.531,0.536s0.766,0.408,1.021,0.612c0.254,0.204,0.416,0.341,0.484,0.408v-1.786c0-1.156-0.459-1.922-1.379-2.297
		c-0.918-0.374-2.074-0.562-3.469-0.562c-1.531,0-2.936,0.256-4.211,0.766c-1.275,0.511-2.408,1.039-3.395,1.582L949.807,718.912z
		 M961.137,736.621c0.781,0,1.461-0.187,2.041-0.562c0.578-0.374,0.986-0.748,1.225-1.122v-1.939
		c-0.035-0.068-0.111-0.179-0.23-0.332s-0.297-0.314-0.535-0.484s-0.535-0.323-0.893-0.46c-0.357-0.135-0.809-0.204-1.354-0.204
		c-1.02,0-1.77,0.256-2.244,0.766c-0.479,0.511-0.715,1.157-0.715,1.939c0,0.715,0.254,1.294,0.766,1.735
		C959.707,736.4,960.354,736.621,961.137,736.621z"/>
</g>
</svg>
