<?xml version="1.0" encoding="utf-8"?>
<!-- Generator: Adobe Illustrator 16.0.0, SVG Export Plug-In . SVG Version: 6.00 Build 0)  -->
<!DOCTYPE svg PUBLIC "-//W3C//DTD SVG 1.1//EN" "http://www.w3.org/Graphics/SVG/1.1/DTD/svg11.dtd">
<svg version="1.1" id="Layer_1" xmlns="http://www.w3.org/2000/svg" xmlns:xlink="http://www.w3.org/1999/xlink" x="0px" y="0px"
	 width="1190.55px" height="841.89px" viewBox="0 0 1190.55 841.89" enable-background="new 0 0 1190.55 841.89"
	 xml:space="preserve">
<g>
	<path fill="none" stroke="#00A2D3" stroke-width="2.1084" stroke-miterlimit="10" d="M614.444,351.888
		c0,0-2.52,44.683,2.504,60.308c2.038,5.32,7.7,6.612,11.811,7.22c4.109,0.607,16.883,1.207,21.009,0.296
		c4.122-0.912,8.088-3.448,8.862-9.762c0.774-6.314,2.924-55.577,1.43-58.852c-1.5-3.276-3.102-5.77-7.047-6.94
		c-3.94-1.171-26.507-0.586-30.616,0.445C618.287,345.637,615.977,346.25,614.444,351.888z"/>
	<path fill="none" stroke="#00A2D3" stroke-width="2.1084" stroke-miterlimit="10" d="M614.323,394.505c0,0,3.568,0.606,4.475,4.881
		c0.901,4.275,0.996,4.279,1.177,4.478c0.182,0.198,1.295,1.911,5.366,2.374c4.068,0.462,15.899,1.74,22.698,0.705
		c3.76-0.073,4.439-2.611,4.756-4.356c0.313-1.746,0.288-3.453,1.046-4.421c0.758-0.968,2.138-2.287,5.683-2.276"/>
	
		<ellipse transform="matrix(-0.7373 0.6755 -0.6755 -0.7373 1337.5791 219.1181)" fill="none" stroke="#00A2D3" stroke-width="2.1084" stroke-miterlimit="10" cx="626.189" cy="369.609" rx="10.21" ry="9.977"/>
	<path fill="none" stroke="#00A2D3" stroke-width="2.1084" stroke-miterlimit="10" d="M651.766,368.088
		c1.507,1.641,1.31,4.267-0.433,5.865c-1.746,1.599-4.378,1.563-5.88-0.078c-1.508-1.641-1.31-4.267,0.432-5.865
		C647.631,366.412,650.263,366.447,651.766,368.088z"/>
</g>
<g>
	
		<line fill="none" stroke="#00A2D3" stroke-width="2.1084" stroke-miterlimit="10" x1="1036" y1="398.926" x2="1062.807" y2="398.926"/>
	<path fill="none" stroke="#00A2D3" stroke-width="2.1084" stroke-miterlimit="10" d="M1090.286,380.538
		c0,0-5.196-0.879-5.356,2.639s0,12.792,0,12.792l-19.111-0.403"/>
	<path fill="none" stroke="#00A2D3" stroke-width="2.1084" stroke-miterlimit="10" d="M1033.92,394.049
		c0.24-0.959,43.893,2.399,43.893,2.399l8.797,0.16c0,0,0.32-10.154,0.32-12.872c0-2.719,0.318-3.118,3.356-3.198
		c3.039-0.081,2.558,3.838,2.558,3.838s-0.638,26.704-0.638,30.301c0,3.598-14.311,3.279-14.311,3.279s-37.181,0-39.416,0
		c-2.241,0-2.163-0.641-2.163-0.641l-0.316-18.39h-2.801c-1.037-1.679,0-5.272,0-5.272h9.596c-0.639-3.996,0-34.542,0-34.542
		l35.018,2.317c0,0,5.037,0.96,10.477-2.317"/>
	
		<ellipse fill="none" stroke="#00A2D3" stroke-width="2.1084" stroke-miterlimit="10" cx="1058.707" cy="380.943" rx="10.674" ry="10.788"/>
	<path fill="none" stroke="#00A2D3" stroke-width="2.1084" stroke-miterlimit="10" d="M1065.999,388.821
		c-1.146,0.534-2.413,0.833-3.755,0.833c-4.934,0-8.937-4.042-8.937-9.028c0-4.988,4.003-9.031,8.937-9.031
		c0.777,0,1.535,0.101,2.261,0.291"/>
	<circle fill="none" stroke="#00A2D3" stroke-width="2.1084" stroke-miterlimit="10" cx="1061.225" cy="380.018" r="3.078"/>
	<path fill="none" stroke="#00A2D3" stroke-width="2.1084" stroke-miterlimit="10" d="M1058.706,357.512c0,0-1.878,1-2.878,0"/>
	<path fill="none" stroke="#00A2D3" stroke-width="2.1084" stroke-miterlimit="10" d="M1069.381,357.734c0,0-2.846,1.43-4.279,0"/>
	<path fill="none" stroke="#00A2D3" stroke-width="2.1084" stroke-miterlimit="10" d="M1080.292,357.734c0,0-1.808,1.471-3.278,0"/>
	<path fill="none" stroke="#00A2D3" stroke-width="2.1084" stroke-miterlimit="10" d="M1069.381,338.924
		c0,0.949-0.759,1.718-1.694,1.718c-0.931,0-1.688-0.769-1.688-1.718s0.757-1.719,1.688-1.719
		C1068.622,337.205,1069.381,337.975,1069.381,338.924z"/>
	<circle fill="none" stroke="#00A2D3" stroke-width="2.1084" stroke-miterlimit="10" cx="1078.853" cy="344.8" r="1.439"/>
	<path fill="none" stroke="#00A2D3" stroke-width="2.1084" stroke-miterlimit="10" d="M1058.706,346.159c0,0.75-2.878,0.75-2.878,0
		s0.643-1.359,1.437-1.359C1058.06,344.8,1058.706,345.409,1058.706,346.159z"/>
	<g>
		<polygon fill="#00A2D3" points="1056.211,357.974 1056.718,346.729 1057.177,346.716 1058.318,357.914 		"/>
	</g>
	<g>
		<polygon fill="#00A2D3" points="1067.988,340.649 1068.296,358.375 1066.188,358.323 1067.385,340.635 		"/>
	</g>
	<g>
		<polygon fill="#00A2D3" points="1079.098,346.243 1079.707,358.367 1077.6,358.332 1078.611,346.235 		"/>
	</g>
</g>
<g>
	<path fill="none" stroke="#00A2D3" stroke-width="2.8162" stroke-miterlimit="10" d="M43.177,342.619
		c0,0-7.597,134.641,7.541,181.726c6.141,16.031,23.203,19.925,35.584,21.754c12.385,1.833,50.875,3.637,63.309,0.895
		c12.427-2.747,24.371-10.39,26.703-29.419c2.333-19.024,8.815-167.465,4.305-177.333c-4.516-9.872-9.344-17.387-21.224-20.916
		c-11.882-3.529-79.875-1.77-92.261,1.343C54.749,323.784,47.79,325.629,43.177,342.619z"/>
	<path fill="none" stroke="#00A2D3" stroke-width="2.8162" stroke-miterlimit="10" d="M42.809,471.038
		c0,0,10.755,1.821,13.479,14.707c2.717,12.883,3.007,12.895,3.553,13.497c0.546,0.593,3.902,5.754,16.166,7.149
		c12.257,1.395,47.914,5.245,68.395,2.128c11.329-0.223,13.381-7.869,14.33-13.132c0.944-5.259,0.87-10.402,3.152-13.322
		c2.282-2.915,6.441-6.889,17.125-6.856"/>
	<path fill="none" stroke="#00A2D3" stroke-width="2.8162" stroke-miterlimit="10" d="M55.877,416.801
		c11.217,12.241,30.464,12.855,42.996,1.38c12.52-11.478,13.587-30.707,2.371-42.946c-11.218-12.241-30.469-12.862-42.994-1.384
		C45.724,385.333,44.663,404.56,55.877,416.801z"/>
	<path fill="none" stroke="#00A2D3" stroke-width="2.8162" stroke-miterlimit="10" d="M155.636,391.435
		c4.535,4.944,3.945,12.858-1.31,17.673c-5.256,4.817-13.19,4.712-17.719-0.236c-4.535-4.944-3.945-12.859,1.302-17.671
		C143.171,386.384,151.101,386.49,155.636,391.435z"/>
</g>
<g>
	
		<line fill="none" stroke="#00A2D3" stroke-width="2.8162" stroke-miterlimit="10" x1="230.606" y1="484.358" x2="311.387" y2="484.358"/>
	<path fill="none" stroke="#00A2D3" stroke-width="2.8162" stroke-miterlimit="10" d="M394.188,428.946c0,0-15.66-2.647-16.143,7.95
		c-0.479,10.602,0,38.547,0,38.547l-57.589-1.214"/>
	<path fill="none" stroke="#00A2D3" stroke-width="2.8162" stroke-miterlimit="10" d="M224.34,469.665
		c0.727-2.893,132.262,7.225,132.262,7.225l26.504,0.482c0,0,0.969-30.597,0.969-38.786c0-8.191,0.955-9.395,10.113-9.64
		c9.156-0.241,7.712,11.565,7.712,11.565s-1.932,80.469-1.932,91.311c0,10.839-43.118,9.879-43.118,9.879s-112.028,0-118.773,0
		c-6.75,0-6.509-1.929-6.509-1.929l-0.962-55.414h-8.431c-3.134-5.061,0-15.891,0-15.891h28.906c-1.924-12.038,0-104.082,0-104.082
		l105.521,6.985c0,0,15.184,2.894,31.568-6.985"/>
	<path fill="none" stroke="#00A2D3" stroke-width="2.8162" stroke-miterlimit="10" d="M331.19,430.172
		c0,17.95-14.4,32.507-32.162,32.507c-17.765,0-32.164-14.557-32.164-32.507c0-17.953,14.399-32.508,32.164-32.508
		C316.79,397.664,331.19,412.219,331.19,430.172z"/>
	<path fill="none" stroke="#00A2D3" stroke-width="2.8162" stroke-miterlimit="10" d="M321.004,453.907
		c-3.444,1.612-7.273,2.513-11.317,2.513c-14.866,0-26.92-12.186-26.92-27.208c0-15.029,12.054-27.213,26.92-27.213
		c2.352,0,4.634,0.306,6.813,0.879"/>
	<path fill="none" stroke="#00A2D3" stroke-width="2.8162" stroke-miterlimit="10" d="M315.891,427.382
		c0,5.121-4.151,9.276-9.276,9.276c-5.118,0-9.275-4.155-9.275-9.276c0-5.122,4.157-9.275,9.275-9.275
		C311.74,418.107,315.891,422.26,315.891,427.382z"/>
	<path fill="none" stroke="#00A2D3" stroke-width="2.8162" stroke-miterlimit="10" d="M299.028,359.567c0,0-5.659,3.012-8.674,0"/>
	<path fill="none" stroke="#00A2D3" stroke-width="2.8162" stroke-miterlimit="10" d="M331.19,360.238c0,0-8.574,4.306-12.894,0"/>
	<path fill="none" stroke="#00A2D3" stroke-width="2.8162" stroke-miterlimit="10" d="M364.071,360.238c0,0-5.445,4.428-9.876,0"/>
	
		<ellipse fill="none" stroke="#00A2D3" stroke-width="2.8162" stroke-miterlimit="10" cx="326.097" cy="303.554" rx="5.093" ry="5.177"/>
	<path fill="none" stroke="#00A2D3" stroke-width="2.8162" stroke-miterlimit="10" d="M364.071,321.262
		c0,2.396-1.935,4.337-4.33,4.337c-2.394,0-4.342-1.941-4.342-4.337s1.949-4.337,4.342-4.337
		C362.137,316.925,364.071,318.867,364.071,321.262z"/>
	<path fill="none" stroke="#00A2D3" stroke-width="2.8162" stroke-miterlimit="10" d="M299.028,325.357c0,2.261-8.674,2.261-8.674,0
		c0-2.264,1.941-4.095,4.337-4.095S299.028,323.094,299.028,325.357z"/>
	<g>
		<polygon fill="#00A2D3" points="293.284,360.906 293.423,327.062 294.035,327.044 296.099,360.826 		"/>
	</g>
	<g>
		<polygon fill="#00A2D3" points="326.499,308.742 326.157,362.123 323.341,362.052 325.692,308.721 		"/>
	</g>
	<g>
		<polygon fill="#00A2D3" points="360.066,325.604 360.542,362.111 357.726,362.064 359.416,325.594 		"/>
	</g>
</g>
<path fill="none" stroke="#00A2D3" stroke-width="4.2167" stroke-miterlimit="10" d="M505.415,490.973h9.094V421.98h-9.094v-20.227
	h58.486c26.029,0,38.417,9.721,38.417,26.813c0,13.171-3.606,19.601-15.367,24.303c11.29,3.138,20.699,11.448,20.699,26.658
	c0,22.108-12.388,31.829-42.651,31.829h-59.584V490.973z M546.968,445.972h9.564c8.31,0,10.663-4.548,10.663-12.073
	c0-7.215-4.391-11.447-10.35-11.447h-9.877V445.972z M559.512,490.973c6.586,0,12.7-5.018,12.7-13.486
	c0-7.995-4.547-13.797-13.171-13.797h-12.073v27.283H559.512z"/>
<path fill="none" stroke="#00A2D3" stroke-width="4.2167" stroke-miterlimit="10" d="M619.458,511.356v-20.54h6.587v-37.478h-6.587
	v-20.384h36.376v57.861h7.527v20.54H619.458z"/>
<path fill="none" stroke="#00A2D3" stroke-width="4.2167" stroke-miterlimit="10" d="M730.051,468.395
	c-0.313-7.527-2.664-16.464-9.879-16.464c-9.248,0-13.795,9.877-13.795,20.071c0,10.191,6.115,18.346,16.15,18.502
	c8.311,0.156,13.8-3.294,18.972-8.938l13.799,15.991c-7.371,7.997-21.482,15.995-38.416,15.995
	c-23.052,0-43.123-13.954-43.123-41.865c0-27.753,18.507-40.142,38.577-40.142c10.661,0,16.933,5.801,19.597,8.938l2.669-7.528
	h18.502v35.439H730.051z"/>
<path fill="#00A2D3" d="M891.186,455.536l-1.409,23.676c-3.763,0-7.684,0.472-12.391,0.156c-0.938,4.236-2.508,7.998-5.173,11.604
	c4.392,5.803,9.567,9.565,15.839,5.959c0,7.215-12.387,23.834-30.106,10.505c-15.368,11.447-59.899,12.859-59.899-22.423
	c0-21.48,15.208-30.105,22.11-34.652c-15.525-23.834,1.881-43.434,20.383-43.434c30.889,0,38.572,32.615,7.215,51.588
	c6.271,10.817,10.817,16.776,13.638,19.758c4.237-6.902,3.921-10.663,3.921-22.737H891.186z M829.408,468.081
	c-26.816,23.048,1.878,38.416,16.934,26.029C839.443,486.271,833.168,475.292,829.408,468.081z M838.344,440.64
	c13.955-7.685,14.895-20.542,4.233-20.542C830.974,420.098,833.324,435.307,838.344,440.64z"/>
<path fill="none" stroke="#00A2D3" stroke-width="4.2167" stroke-miterlimit="10" d="M987.092,401.753
	c36.378,0,43.274,15.679,43.274,33.553c0,20.7-18.815,31.049-41.236,31.049h-11.917v24.305h9.563v20.696h-50.491V490.66h8.784
	v-68.367h-8.784v-20.54H987.092z M977.213,449.421h7.054c9.097,0,15.368-4.704,15.368-13.015c0-9.253-5.489-14.27-14.582-14.27
	h-7.84V449.421z"/>
<path fill="none" stroke="#00A2D3" stroke-width="4.2167" stroke-miterlimit="10" d="M1042.959,511.356v-20.54h6.584v-37.478h-6.584
	v-20.384h36.378v57.861h7.527v20.54H1042.959z"/>
<path fill="none" stroke="#00A2D3" stroke-width="4.2167" stroke-miterlimit="10" d="M1153.555,468.395
	c-0.313-7.527-2.664-16.464-9.88-16.464c-9.248,0-13.795,9.877-13.795,20.071c0,10.191,6.115,18.346,16.151,18.502
	c8.31,0.156,13.799-3.294,18.971-8.938l13.799,15.991c-7.371,7.997-21.482,15.995-38.416,15.995
	c-23.052,0-43.122-13.954-43.122-41.865c0-27.753,18.506-40.142,38.576-40.142c10.661,0,16.933,5.801,19.598,8.938l2.667-7.528
	h18.503v35.439H1153.555z"/>
</svg>
